<svg width="29" height="26" viewBox="0 0 29 26" fill="none" xmlns="http://www.w3.org/2000/svg">
<path fill-rule="evenodd" clip-rule="evenodd" d="M11.0163 0.0753635C10.9932 0.112683 10.9122 0.486824 10.8364 0.906779C10.633 2.03269 10.4464 2.33182 9.033 3.79651C8.37986 4.47335 7.7321 5.19774 7.59344 5.40627C7.29076 5.86151 7.06943 6.46342 6.98909 7.04986C6.91922 7.5605 7.08746 8.34073 7.37212 8.82574C7.55811 9.14267 8.07812 9.67836 8.50085 9.9886C8.74646 10.1688 9.04267 10.2294 9.11407 10.1141C9.13392 10.082 9.08681 9.81464 9.0093 9.51993C8.84476 8.89392 8.82956 8.18295 8.96953 7.65787C9.14955 6.98284 9.50284 6.45274 10.5144 5.33998C12.0592 3.6407 12.3337 3.12519 12.2708 2.04104C12.2365 1.45002 11.9674 0.742616 11.5875 0.245335C11.4095 0.0121962 11.1104 -0.0767469 11.0163 0.0753635ZM15.9597 0.134538C15.9323 0.204458 15.8628 0.555655 15.8052 0.915056C15.6387 1.95362 15.4309 2.29567 14.1697 3.60585C12.8757 4.9503 12.5496 5.34855 12.2805 5.91393C11.5768 7.39198 11.9937 8.90466 13.3861 9.92536C13.7751 10.2106 14.075 10.2398 14.0562 9.99085C14.0502 9.91099 13.9898 9.60059 13.922 9.30109C13.7079 8.35467 13.8876 7.37637 14.4217 6.58119C14.5569 6.37999 15.0855 5.7579 15.5964 5.19883C16.1073 4.63976 16.6309 4.01847 16.76 3.81815C17.189 3.15199 17.3563 2.43543 17.2353 1.78161C17.1523 1.33356 16.734 0.417122 16.496 0.162055C16.3211 -0.0254142 16.0282 -0.0404435 15.9597 0.134538ZM0.0209095 11.8874C-0.0450372 12.059 0.0552282 14.4002 0.179124 15.5815C0.305491 16.7864 0.490389 17.5904 0.846516 18.4835C1.36333 19.7796 1.99968 20.9085 2.84171 22.0232C3.50714 22.9041 5.23034 24.5959 5.91525 25.0407C6.55015 25.4531 7.46199 25.8128 8.15846 25.9256C8.4229 25.9685 10.1266 25.9997 12.2196 26C16.2943 26.0006 16.3841 25.9909 17.576 25.422C18.4177 25.0202 18.752 24.7752 19.6657 23.8904C20.1056 23.4644 20.5341 23.0803 20.6179 23.0369C20.7017 22.9935 21.0616 22.9235 21.4177 22.8813C24.2505 22.546 26.4096 21.3498 27.8674 19.3079C28.9327 17.8159 29.2845 16.149 28.76 15.0785C28.5337 14.6165 27.9667 14.0659 27.5094 13.8639C27.1393 13.7005 26.2082 13.5904 25.1552 13.5857C24.7753 13.584 24.4242 13.5571 24.375 13.5258C24.3164 13.4887 24.2764 13.2051 24.2593 12.7038C24.2449 12.2828 24.2096 11.9005 24.1809 11.8541C24.1416 11.7905 21.1578 11.7697 12.0975 11.7697C1.07089 11.7697 0.0623534 11.7795 0.0209095 11.8874ZM26.6282 15.8752C26.8273 15.9517 26.8575 16.2404 26.7195 16.7491C26.3899 17.9651 25.159 19.2961 23.7374 19.9734C23.058 20.297 22.63 20.4536 22.575 20.3987C22.5535 20.3773 22.6974 20.0198 22.8948 19.6042C23.1257 19.1183 23.4011 18.3308 23.6668 17.3967C23.894 16.598 24.1171 15.899 24.1626 15.8433C24.2297 15.7611 24.4582 15.7499 25.3728 15.784C25.993 15.8071 26.5578 15.8481 26.6282 15.8752Z" fill="white"/>
</svg>
