<svg width="21" height="22" viewBox="0 0 21 22" fill="none" xmlns="http://www.w3.org/2000/svg">
<path fill-rule="evenodd" clip-rule="evenodd" d="M10.1888 0.0974209C10.0812 0.151018 9.95705 0.25528 9.91297 0.329091C9.86889 0.402903 9.29651 1.91514 8.64103 3.68965C7.3568 7.1663 7.33945 7.20369 6.97672 7.27462C6.89081 7.29144 5.40668 7.41623 3.67864 7.55197C1.16833 7.74912 0.50689 7.81584 0.388061 7.88378C0.0329353 8.08691 -0.114123 8.65255 0.098821 8.99605C0.159126 9.09337 1.30488 10.1844 2.64492 11.4207C4.17768 12.8348 5.11251 13.7322 5.16545 13.8405C5.21174 13.9351 5.24958 14.0887 5.24958 14.1818C5.24958 14.2748 5.07912 15.0969 4.87082 16.0085C3.89196 20.2926 3.70818 21.1712 3.74926 21.371C3.8287 21.7574 4.2356 22.059 4.58144 21.9878C4.68484 21.9665 5.62384 21.3567 6.98169 20.429C8.20843 19.5908 9.44197 18.7482 9.72291 18.5566C10.2954 18.1661 10.4723 18.1063 10.7287 18.2169C10.8242 18.258 12.106 19.1154 13.5772 20.1222C15.2263 21.2509 16.3172 21.9663 16.4219 21.9878C16.6508 22.0349 16.8769 21.9445 17.0662 21.7304C17.3516 21.4074 17.3531 21.4181 16.5072 17.6844C16.0928 15.8555 15.7538 14.2747 15.7538 14.1713C15.7538 14.0679 15.7844 13.9183 15.822 13.8388C15.8594 13.7593 16.9992 12.6713 18.3548 11.4211C19.7103 10.1709 20.8505 9.09589 20.8885 9.03226C21.1506 8.59361 20.9269 7.95528 20.4655 7.8252C20.3629 7.79629 18.8863 7.66564 17.184 7.53484C15.4818 7.40409 14.024 7.27447 13.9444 7.24679C13.8648 7.21912 13.7452 7.13338 13.6787 7.05622C13.5989 6.96374 13.1512 5.81717 12.3641 3.68965C11.7076 1.91514 11.1345 0.402903 11.0904 0.329091C11.0007 0.178896 10.6806 0 10.5017 0C10.4372 0 10.2964 0.043824 10.1888 0.0974209Z" fill="#FDCD00"/>
</svg>
