<svg width="32" height="32" viewBox="0 0 32 32" fill="none" xmlns="http://www.w3.org/2000/svg">
<g clip-path="url(#clip0_143_268)">
<path d="M16 0C11.7575 0 7.685 1.68675 4.6875 4.68625C1.68693 7.68696 0.000858621 11.7565 0 16C0 20.2417 1.6875 24.3142 4.6875 27.3137C7.685 30.3132 11.7575 32 16 32C20.2425 32 24.315 30.3132 27.3125 27.3137C30.3125 24.3142 32 20.2417 32 16C32 11.7583 30.3125 7.68575 27.3125 4.68625C24.315 1.68675 20.2425 0 16 0Z" fill="#F5F5DC"/>
<path d="M7.24116 15.831C11.9062 13.799 15.0162 12.4593 16.5712 11.812C21.0162 9.96371 21.9387 9.64271 22.5412 9.63184C22.6737 9.62971 22.9687 9.66246 23.1612 9.81809C23.3212 9.94934 23.3662 10.1268 23.3887 10.2515C23.4087 10.376 23.4362 10.6597 23.4137 10.8812C23.1737 13.4112 22.1312 19.5507 21.6012 22.3845C21.3787 23.5835 20.9362 23.9855 20.5087 24.0247C19.5787 24.1102 18.8737 23.4107 17.9737 22.821C16.5662 21.8977 15.7712 21.3232 14.4037 20.4225C12.8237 19.3815 13.8487 18.8092 14.7487 17.8742C14.9837 17.6295 19.0787 13.9057 19.1562 13.568C19.1662 13.5257 19.1762 13.3682 19.0812 13.2852C18.9887 13.202 18.8512 13.2305 18.7512 13.253C18.6087 13.285 16.3612 14.772 12.0012 17.7137C11.3637 18.1522 10.7862 18.366 10.2662 18.3547C9.69616 18.3425 8.59616 18.0317 7.77866 17.7662C6.77866 17.4405 5.98116 17.2682 6.05116 16.715C6.08616 16.427 6.48366 16.1322 7.24116 15.831Z" fill="#683A22"/>
</g>
<defs>
<clipPath id="clip0_143_268">
<rect width="32" height="32" fill="white"/>
</clipPath>
</defs>
</svg>
