<svg width="32" height="32" viewBox="0 0 32 32" fill="none" xmlns="http://www.w3.org/2000/svg">
<g clip-path="url(#clip0_143_271)">
<circle cx="16" cy="16" r="12" fill="#683A22"/>
<path d="M16.0006 0.639984C7.51742 0.639984 0.640625 7.51678 0.640625 16C0.640625 24.4832 7.51742 31.36 16.0006 31.36C24.4838 31.36 31.3606 24.4832 31.3606 16C31.3606 7.51678 24.4838 0.639984 16.0006 0.639984ZM21.9078 17.9696C21.9078 17.9696 23.2662 19.3104 23.6006 19.9328C23.6102 19.9466 23.6161 19.9573 23.6182 19.9648C23.7537 20.192 23.7873 20.3717 23.719 20.504C23.607 20.7248 23.223 20.8336 23.0918 20.8432H20.6918C20.5254 20.8432 20.1766 20.8 19.7542 20.5088C19.4294 20.2816 19.1094 19.9088 18.7974 19.5456C18.3318 19.0048 17.9286 18.5376 17.5222 18.5376C17.4706 18.5374 17.4193 18.5455 17.3702 18.5616C17.063 18.6608 16.6694 19.0992 16.6694 20.2672C16.6694 20.632 16.3814 20.8416 16.1782 20.8416H15.079C14.7046 20.8416 12.7542 20.7104 11.0262 18.888C8.91102 16.656 7.00702 12.1792 6.99102 12.1376C6.87102 11.848 7.11902 11.6928 7.38942 11.6928H9.81342C10.1366 11.6928 10.2422 11.8896 10.3158 12.064C10.4022 12.2672 10.719 13.0752 11.239 13.984C12.0822 15.4656 12.599 16.0672 13.0134 16.0672C13.0911 16.0663 13.1674 16.0465 13.2358 16.0096C13.7766 15.7088 13.6758 13.7808 13.6518 13.3808C13.6518 13.3056 13.6502 12.5184 13.3734 12.1408C13.175 11.8672 12.8374 11.7632 12.6326 11.7248C12.7155 11.6104 12.8247 11.5177 12.951 11.4544C13.3222 11.2688 13.991 11.2416 14.655 11.2416H15.0246C15.7446 11.2512 15.9302 11.2976 16.191 11.3632C16.719 11.4896 16.7302 11.8304 16.6838 12.9968C16.6694 13.328 16.655 13.7024 16.655 14.144L16.6502 14.4512C16.6342 15.0448 16.615 15.7184 17.0342 15.9952C17.0883 16.0308 17.1519 16.0492 17.2166 16.048C17.3622 16.048 17.8006 16.048 18.9878 14.0112C19.3526 13.3549 19.6707 12.6737 19.9398 11.9728C19.9638 11.9312 20.0342 11.8032 20.1174 11.7536C20.1795 11.7241 20.2471 11.7083 20.3158 11.7072H23.1654C23.4758 11.7072 23.6886 11.7536 23.7286 11.8736C23.799 12.064 23.7158 12.6448 22.415 14.4064L21.8342 15.1728C20.655 16.7184 20.655 16.7968 21.9078 17.9696Z" fill="#F5F5DC"/>
</g>
<defs>
<clipPath id="clip0_143_271">
<rect width="32" height="32" fill="white"/>
</clipPath>
</defs>
</svg>
