<svg width="32" height="32" viewBox="0 0 32 32" fill="none" xmlns="http://www.w3.org/2000/svg">
<g clip-path="url(#clip0_143_84)">
<circle cx="16.5" cy="16.5" r="12.5" fill="white"/>
<path d="M16.0006 0.639648C7.51742 0.639648 0.640625 7.51645 0.640625 15.9996C0.640625 24.4828 7.51742 31.3596 16.0006 31.3596C24.4838 31.3596 31.3606 24.4828 31.3606 15.9996C31.3606 7.51645 24.4838 0.639648 16.0006 0.639648ZM21.9078 17.9692C21.9078 17.9692 23.2662 19.31 23.6006 19.9324C23.6102 19.9463 23.6161 19.957 23.6182 19.9644C23.7537 20.1916 23.7873 20.3714 23.719 20.5036C23.607 20.7244 23.223 20.8332 23.0918 20.8428H20.6918C20.5254 20.8428 20.1766 20.7996 19.7542 20.5084C19.4294 20.2812 19.1094 19.9084 18.7974 19.5452C18.3318 19.0044 17.9286 18.5372 17.5222 18.5372C17.4706 18.537 17.4193 18.5451 17.3702 18.5612C17.063 18.6604 16.6694 19.0988 16.6694 20.2668C16.6694 20.6316 16.3814 20.8412 16.1782 20.8412H15.079C14.7046 20.8412 12.7542 20.71 11.0262 18.8876C8.91102 16.6556 7.00702 12.1788 6.99102 12.1372C6.87102 11.8476 7.11902 11.6924 7.38942 11.6924H9.81342C10.1366 11.6924 10.2422 11.8892 10.3158 12.0636C10.4022 12.2668 10.719 13.0748 11.239 13.9836C12.0822 15.4652 12.599 16.0668 13.0134 16.0668C13.0911 16.0659 13.1674 16.0462 13.2358 16.0092C13.7766 15.7084 13.6758 13.7804 13.6518 13.3804C13.6518 13.3052 13.6502 12.518 13.3734 12.1404C13.175 11.8668 12.8374 11.7628 12.6326 11.7244C12.7155 11.6101 12.8247 11.5173 12.951 11.454C13.3222 11.2684 13.991 11.2412 14.655 11.2412H15.0246C15.7446 11.2508 15.9302 11.2972 16.191 11.3628C16.719 11.4892 16.7302 11.83 16.6838 12.9964C16.6694 13.3276 16.655 13.702 16.655 14.1436L16.6502 14.4508C16.6342 15.0444 16.615 15.718 17.0342 15.9948C17.0883 16.0305 17.1519 16.0489 17.2166 16.0476C17.3622 16.0476 17.8006 16.0476 18.9878 14.0108C19.3526 13.3546 19.6707 12.6734 19.9398 11.9724C19.9638 11.9308 20.0342 11.8028 20.1174 11.7532C20.1795 11.7238 20.2471 11.7079 20.3158 11.7068H23.1654C23.4758 11.7068 23.6886 11.7532 23.7286 11.8732C23.799 12.0636 23.7158 12.6444 22.415 14.406L21.8342 15.1724C20.655 16.718 20.655 16.7964 21.9078 17.9692Z" fill="#0D99FF"/>
</g>
<defs>
<clipPath id="clip0_143_84">
<rect width="32" height="32" fill="white"/>
</clipPath>
</defs>
</svg>
