<svg width="58" height="40" viewBox="0 0 58 40" fill="none" xmlns="http://www.w3.org/2000/svg">
<path fill-rule="evenodd" clip-rule="evenodd" d="M27.9501 0.0594634C26.9443 0.183278 25.8692 0.545323 24.752 1.13655C23.6829 1.70224 22.0418 3.30081 21.4266 4.37569C18.5737 9.36019 20.7929 15.685 26.0654 17.5961C30.2914 19.128 35.02 17.1281 36.9446 12.995C37.5154 11.7695 37.7244 10.9195 37.802 9.50907C37.9511 6.7964 36.9574 4.31825 34.9528 2.4037C33.1135 0.64709 30.4418 -0.247231 27.9501 0.0594634ZM9.17578 6.7291C6.20929 7.41374 4.21316 10.308 4.62912 13.3215C5.11046 16.8081 8.47921 19.1841 11.7291 18.3294C12.857 18.0327 13.5936 17.5965 14.4521 16.7173C16.2781 14.8467 16.699 12.3541 15.5901 9.97799C14.4453 7.52455 11.7169 6.14263 9.17578 6.7291ZM46.8418 6.6358C45.0669 6.87728 43.283 8.18076 42.4673 9.83213C41.281 12.234 41.6855 14.8154 43.5462 16.7173C45.4075 18.6197 47.9322 19.0354 50.2693 17.8242C52.537 16.6489 53.8239 13.9418 53.3096 11.4285C52.6708 8.30748 49.8607 6.22514 46.8418 6.6358ZM27.1309 20.4359C23.4348 21.0088 20.4382 22.5165 17.9442 25.0581C16.2767 26.7575 15.2734 28.2601 14.3898 30.3813C14.0025 31.3111 13.3644 33.4888 13.3687 33.8659C13.3708 34.049 14.6272 35.0854 15.9222 35.9722C19.7915 38.6222 24.273 40.0024 29 40C33.6143 39.9976 37.7999 38.7533 41.7206 36.2184C42.9451 35.4266 44.6328 34.0693 44.6328 33.8762C44.6328 33.5114 44.0183 31.371 43.6562 30.4751C42.8244 28.4169 41.7646 26.8168 40.106 25.1145C37.9084 22.8595 35.391 21.437 32.2852 20.6953C31.3436 20.4705 27.9952 20.302 27.1309 20.4359ZM8.39561 20.6512C6.81409 21.0194 5.46469 21.6251 4.23434 22.519C3.22002 23.2561 1.82859 24.8368 1.20928 25.9556C0.705516 26.8658 0 28.8099 0 29.2878C0 29.5394 1.22389 30.5267 2.43555 31.2522C4.92581 32.7433 8.55681 33.6432 11.1805 33.4195L12.1091 33.3402L12.2422 32.683C12.8012 29.922 14.4752 26.7421 16.5538 24.4922L17.5972 23.3629L17.2663 23.0787C16.0823 22.0617 14.6126 21.2601 13.133 20.8245C12.0213 20.4971 9.46 20.4034 8.39561 20.6512ZM45.8598 20.5914C44.0385 20.9303 42.2273 21.8049 40.7287 23.0688L40.3928 23.3521L41.4412 24.4868C43.5244 26.7416 45.1983 29.9194 45.7575 32.6812L45.8902 33.337L46.7625 33.4159C48.6302 33.5849 51.5187 33.0911 53.5616 32.2535C55.3892 31.5042 58 29.7629 58 29.2933C58 29.1701 57.848 28.5857 57.6622 27.9946C56.8014 25.2559 54.8203 22.9116 52.2553 21.5963C50.814 20.8572 49.6596 20.5736 47.918 20.5306C47.0769 20.5098 46.1507 20.5372 45.8598 20.5914Z" fill="#683A22"/>
</svg>
