<svg width="42" height="36" viewBox="0 0 42 36" fill="none" xmlns="http://www.w3.org/2000/svg">
<path fill-rule="evenodd" clip-rule="evenodd" d="M16.1511 0.104349C16.1189 0.156023 16.0063 0.674064 15.9007 1.25554C15.6177 2.81449 15.3579 3.22868 13.3907 5.25671C12.4816 6.19387 11.58 7.19688 11.387 7.4856C10.9658 8.11594 10.6577 8.94935 10.5459 9.76134C10.4486 10.4684 10.6828 11.5487 11.079 12.2203C11.3379 12.6591 12.0616 13.4008 12.65 13.8304C12.9919 14.0799 13.4042 14.1638 13.5035 14.0041C13.5312 13.9597 13.4656 13.5895 13.3577 13.1814C13.1287 12.3147 13.1075 11.3302 13.3023 10.6032C13.5529 9.66855 14.0446 8.93457 15.4526 7.39382C17.6027 5.04097 17.9847 4.32719 17.8972 2.82605C17.8495 2.00772 17.4749 1.02824 16.9462 0.339695C16.6984 0.016887 16.2822 -0.106265 16.1511 0.104349ZM23.0317 0.186283C22.9935 0.283095 22.8968 0.769368 22.8166 1.267C22.5849 2.70501 22.2955 3.17861 20.5401 4.99271C18.7391 6.85426 18.2853 7.40568 17.9107 8.18852C16.9313 10.2351 17.5115 12.3295 19.4495 13.7428C19.991 14.1377 20.4084 14.1782 20.3822 13.8335C20.3739 13.7229 20.2898 13.2931 20.1954 12.8784C19.8974 11.568 20.1476 10.2134 20.891 9.11241C21.0791 8.83384 21.8148 7.97248 22.526 7.19838C23.2371 6.42429 23.9658 5.56404 24.1455 5.28667C24.7426 4.36429 24.9754 3.37214 24.807 2.46685C24.6915 1.84647 24.1093 0.577553 23.7781 0.224385C23.5346 -0.0351889 23.127 -0.0559987 23.0317 0.186283ZM0.847218 16.4595C0.75543 16.6971 0.894985 19.9388 1.06743 21.5744C1.24331 23.2427 1.50066 24.356 1.99634 25.5926C2.71566 27.3872 3.60136 28.9503 4.77335 30.4936C5.69953 31.7134 8.09796 34.0559 9.05126 34.6717C9.93493 35.2428 11.2041 35.7408 12.1735 35.897C12.5415 35.9563 14.9128 35.9996 17.826 36C23.4974 36.0009 23.6224 35.9874 25.2812 35.1996C26.4528 34.6433 26.9181 34.3041 28.1898 33.079C28.8021 32.4892 29.3984 31.9574 29.5151 31.8973C29.6318 31.8371 30.1327 31.7402 30.6283 31.6818C34.5711 31.2176 37.5763 29.5613 39.6053 26.734C41.0881 24.6681 41.5777 22.3602 40.8477 20.8779C40.5327 20.2383 39.7436 19.4758 39.107 19.1962C38.592 18.9699 37.2959 18.8175 35.8304 18.811C35.3016 18.8086 34.8129 18.7713 34.7444 18.7281C34.6628 18.6766 34.6073 18.284 34.5834 17.5899C34.5634 17.007 34.5143 16.4776 34.4743 16.4133C34.4195 16.3254 30.2665 16.2965 17.656 16.2965C2.30864 16.2965 0.904902 16.3101 0.847218 16.4595ZM37.8806 21.981C38.1577 22.087 38.1997 22.4867 38.0077 23.1911C37.5489 24.8748 35.8356 26.7177 33.857 27.6554C32.9114 28.1035 32.3156 28.3204 32.2391 28.2443C32.2092 28.2147 32.4095 27.7197 32.6843 27.1443C33.0056 26.4716 33.3889 25.3811 33.7587 24.0877C34.075 22.9819 34.3854 22.014 34.4488 21.9369C34.5422 21.8231 34.8603 21.8076 36.1333 21.8547C36.9964 21.8867 37.7826 21.9435 37.8806 21.981Z" fill="#683A22"/>
</svg>
