<svg width="40" height="40" viewBox="0 0 40 40" fill="none" xmlns="http://www.w3.org/2000/svg">
<path fill-rule="evenodd" clip-rule="evenodd" d="M15.3985 2.72905C8.76433 4.22265 3.1419 5.5109 2.90423 5.59194C1.59965 6.03643 0.408533 7.36155 0.0963048 8.71575C0.0355449 8.97934 0.00183021 13.8886 0.000348258 22.7042C-0.00187467 36.0788 0.000996673 36.2956 0.1855 36.8929C0.570529 38.1397 1.60021 39.2469 2.8394 39.7468L3.37882 39.9644L19.8192 39.9891C36.0796 40.0134 36.2664 40.0117 36.8767 39.8268C38.13 39.4471 39.2442 38.4156 39.7468 37.1695L39.9645 36.6301L39.9893 24.6358C40.0136 12.9028 40.0101 12.6282 39.8305 12.0355C39.4166 10.6709 38.4646 9.66853 37.0438 9.10169C36.6559 8.94693 35.8236 8.93377 23.6959 8.89034C11.1415 8.84541 10.756 8.83884 10.5667 8.66758C10.3017 8.4277 10.3017 7.87105 10.5667 7.63116C10.7558 7.46 11.0922 7.45398 21.7277 7.43046L32.6937 7.40619V5.69836C32.6937 4.7591 32.6476 3.76973 32.5913 3.49975C32.269 1.95419 31.0773 0.650284 29.5579 0.1807C28.3377 -0.196357 28.6123 -0.245817 15.3985 2.72905ZM22.0421 14.3256C23.9804 14.7107 25.6902 15.6188 27.193 17.0616C31.3841 21.0851 31.3708 27.8514 27.1639 31.8689C25.6348 33.3293 23.8274 34.2571 21.7602 34.6426C20.9905 34.7861 19.0184 34.7861 18.2487 34.6426C16.8485 34.3815 15.3367 33.7601 14.1333 32.951C13.3243 32.4071 11.9571 31.0097 11.4065 30.1641C10.2085 28.3237 9.70119 26.6241 9.70119 24.4505C9.70119 21.6477 10.6485 19.3107 12.6154 17.2621C15.0265 14.7506 18.5915 13.6401 22.0421 14.3256ZM18.2551 15.6966C14.8822 16.4593 12.4328 18.7235 11.4191 22.0157C11.1872 22.7687 11.1684 22.951 11.1684 24.4505C11.1684 25.9562 11.1866 26.1302 11.4231 26.8992C12.3409 29.8829 14.572 32.1139 17.5557 33.0317C18.3248 33.2683 18.4988 33.2864 20.0045 33.2864C21.5101 33.2864 21.6842 33.2683 22.4532 33.0317C25.4274 32.1169 27.671 29.8734 28.5858 26.8992C28.8223 26.1302 28.8405 25.9562 28.8405 24.4505C28.8405 22.9449 28.8223 22.7709 28.5858 22.0018C27.6672 19.0155 25.4121 16.7629 22.4532 15.8758C21.7509 15.6653 21.4146 15.6227 20.236 15.5953C19.255 15.5724 18.6728 15.6022 18.2551 15.6966ZM22.5189 18.4636C23.5363 18.7031 24.2637 19.3038 24.7165 20.2784C25.0568 21.0107 25.0515 22.0497 24.7038 22.8084C24.3811 23.5125 23.6801 24.1902 22.9926 24.4628C22.5037 24.6566 22.2825 24.6773 20.3518 24.7089L18.2446 24.7436V25.0602V25.3767H20.4717H22.6989L22.9262 25.6041C23.2037 25.8815 23.2163 26.1982 22.9629 26.5203L22.7723 26.7628L20.5316 26.7875L18.291 26.8123L18.2446 28.4888C18.1956 30.2666 18.1611 30.402 17.7306 30.51C17.467 30.5762 16.9985 30.3657 16.9128 30.1425C16.8812 30.0601 16.8553 29.2683 16.8553 28.3831V26.7735L16.1008 26.7466C15.4064 26.7219 15.3317 26.7001 15.1626 26.4731C14.9499 26.1877 14.9947 25.848 15.2831 25.5597C15.4326 25.4101 15.5925 25.3767 16.1606 25.3767H16.8553V25.0526V24.7284H16.1998C15.5989 24.7284 15.5218 24.7059 15.2736 24.4577C14.9449 24.129 14.9321 23.8947 15.2244 23.555C15.4237 23.3233 15.5166 23.2938 16.1506 23.2618L16.8553 23.2262V21.0312C16.8553 18.7394 16.8672 18.666 17.2721 18.4446C17.5521 18.2914 21.8537 18.307 22.5189 18.4636ZM18.2446 21.533V23.2465H20.23C21.4075 23.2465 22.3214 23.2064 22.4761 23.1479C23.5995 22.7235 23.8961 21.1006 23.0029 20.2654C22.5653 19.8561 22.3374 19.8195 20.23 19.8195H18.2446V21.533Z" fill="#683A22"/>
</svg>
