<svg width="642" height="90" viewBox="0 0 642 90" fill="none" xmlns="http://www.w3.org/2000/svg">
<path fill-rule="evenodd" clip-rule="evenodd" d="M118.098 1.10833C117.881 1.7024 117.801 8.76495 117.922 16.8039L118.143 31.4197L120.552 32.1423C121.876 32.5406 126.934 33.0868 131.791 33.3565C150.443 34.3943 163.255 29.0602 160.66 21.338C159.707 18.5021 154.748 14.8225 149.856 13.3209C147.636 12.6403 141.983 12.2126 135.204 12.2126H124.164V8.22129V4.22996H141.024H157.884V2.12927V0.0285695H138.189C122.886 0.0285695 118.406 0.269729 118.098 1.10833ZM169.708 1.47889L166.68 2.74435L166.898 17.982L167.117 33.2196L170.73 33.4994C180.756 34.2767 193.576 29.7694 200.432 23.0581L204.449 19.1247V26.4335V33.7414L207.46 33.4801L210.47 33.2196L210.689 17.0442C210.928 -0.730202 210.986 -0.539459 206.125 2.09061C204.368 3.04265 203.77 4.07367 203.428 6.74576C201.898 18.6853 190.093 29.4669 176.97 30.9113L173.174 31.329L172.956 15.7712L172.737 0.214271L169.708 1.47889ZM255.101 3.83839C252.458 9.05316 248.755 12.3303 245.757 12.1059C244.454 12.0084 239.142 11.8983 233.954 11.8605L224.52 11.7925V6.33066C224.52 0.409216 224.083 -0.0352918 220.125 1.85197L218.062 2.83594L218.28 18.0273L218.499 33.2196L221.51 33.4801L224.52 33.7414V24.0269V14.3133H236.338H248.156L250.388 17.0442C253.092 20.3524 254.987 24.3849 256.213 29.4383C256.986 32.6238 257.471 33.2616 259.291 33.4851C261.091 33.7069 261.448 33.4271 261.433 31.8046C261.405 28.6812 258.471 22.7606 254.602 18.0206C252.629 15.6031 251.014 13.4327 251.014 13.1974C251.014 12.9621 252.283 11.9488 253.835 10.9446C256.568 9.17753 261.451 2.75443 261.451 0.927668C261.451 0.432744 260.457 0.0285695 259.242 0.0285695C257.44 0.0285695 256.677 0.731883 255.101 3.83839ZM286.888 0.575591C286.586 0.890696 286.339 1.84189 286.339 2.68973C286.339 4.09384 287.153 4.22996 295.553 4.22996H304.767L304.986 18.7248L305.206 33.2196L308.217 33.4801L311.228 33.7414V19.0121V4.2829L320.661 4.04678C329.483 3.82495 330.094 3.70143 330.094 2.12927C330.094 0.496605 329.488 0.441987 308.765 0.225195C297.034 0.102514 287.189 0.259646 286.888 0.575591ZM342.94 0.893216C333.95 2.30404 332.103 3.28129 333.637 5.81809C334.219 6.78357 335.018 6.64072 338.239 4.9963C341.609 3.27625 343.334 3.004 350.968 2.98803C360.96 2.96702 363.923 4.1056 367.224 9.2313C370.592 14.462 371.161 14.3133 347.757 14.3133C336.056 14.3133 326.482 14.5385 326.482 14.8141C326.482 15.0897 327.072 17.4391 327.793 20.0365C329.38 25.7487 333.531 30.5357 338.487 32.3659C342.64 33.8994 356.616 34.0884 362.406 32.6894C370.482 30.7382 376.219 24.2362 376.245 17.0022C376.268 10.7598 372.55 5.7307 365.621 2.63343C361.102 0.613403 350.102 -0.231077 342.94 0.893216ZM382.23 1.12093C382.016 1.70493 381.939 9.13551 382.06 17.6324C382.222 29.077 382.54 33.1717 383.283 33.4305C384.06 33.7011 384.287 30.4509 384.287 19.0046C384.287 10.8791 384.582 4.22996 384.943 4.22996C388.117 4.22996 394.347 7.31547 397.872 10.6329L401.98 14.4982L405.523 11.0791C409.118 7.61125 412.523 5.72566 417.088 4.67699L419.612 4.09636V18.9189V33.7414L422.622 33.4801L425.633 33.2196V16.8341V0.448709L421.119 0.60416C415.512 0.796584 410.166 3.33002 405.376 8.06584L401.789 11.6118L398.987 8.36582C394.658 3.35019 383.225 -1.59317 382.23 1.12093ZM461.36 0.862126C448.354 2.77376 438.742 9.84639 434.352 20.7347C432.721 24.779 430.929 32.6011 431.498 33.1952C431.731 33.4397 433.12 33.6397 434.583 33.6397C437.405 33.6397 437.411 33.6296 438.432 26.9175C438.678 25.3 439.912 21.6926 441.175 18.9012C445.224 9.9447 453.204 4.36693 463.983 2.95778L468.585 2.35614V18.0483V33.7414L471.596 33.4801L474.607 33.2196V16.8341V0.448709L470.191 0.33107C467.762 0.266368 463.788 0.505008 461.36 0.862126ZM483.037 16.8341V33.6683L503.308 33.4439L523.58 33.2196L523.835 31.3458L524.089 29.4711L506.574 29.2451L489.058 29.0182V21.8758V14.7334L501.301 14.5015C517.761 14.1898 517.594 12.6328 501.101 12.6328H488.656V8.43136V4.22996H506.375H524.093L523.837 2.33934L523.58 0.448709L503.308 0.224354L483.037 0V16.8341ZM147.85 16.1745C151.286 18.0677 153.268 20.633 153.268 23.19C153.268 28.209 146.759 31.1239 135.589 31.1071C123.669 31.0903 124.164 31.4558 124.164 22.68C124.164 16.3543 124.369 15.2141 125.569 14.8435C128.779 13.8545 145.445 14.8494 147.85 16.1745ZM369.032 20.4297C369.032 23.2404 364.088 27.5057 359.051 29.0375C349.04 32.0835 337.156 29.1946 333.05 22.7161L331.185 19.7751L346.295 19.3113C369.692 18.5929 369.032 18.5601 369.032 20.4297ZM71.7314 29.6484C72.0887 30.2265 72.3809 32.9893 72.3809 35.7883V40.8779L70.3738 38.8511C66.6301 35.0724 60.0877 32.5364 53.9154 32.4726C46.8833 32.3995 43.9096 33.9548 40.9398 39.2578C38.4406 43.7214 37.8096 51.1965 39.7685 53.1325C40.6998 54.0526 40.7929 53.8577 40.3538 51.9082C39.6095 48.6043 41.7122 44.8978 45.4703 42.8912C51.7718 39.5259 56.5231 40.9401 67.3294 49.3975C71.8615 52.9443 78.2601 57.2776 81.5494 59.0271C86.7342 61.7865 88.2572 62.2092 93.0012 62.2092C98.7536 62.2092 100.11 61.132 96.2656 59.6178C95.0509 59.1397 92.7234 57.391 91.092 55.7323C88.3495 52.9443 87.1998 50.573 83.6392 40.362C82.1066 35.969 80.704 34.0481 76.7211 30.8878C73.7241 28.5098 70.5384 27.7191 71.7314 29.6484ZM564.839 30.9147C561.133 33.7977 558.991 37.2538 557.028 43.5113C554.212 52.4863 550.922 57.1961 545.945 59.3724C541.745 61.2093 542.724 62.2092 548.722 62.2092C553.484 62.2092 554.984 61.7891 560.286 58.9682C563.636 57.1852 569.887 52.9661 574.176 49.5924C582.325 43.1811 585.999 41.3005 590.497 41.2392C596.876 41.1518 602.303 46.5338 601.475 52.1259L601.039 55.0668L602.347 52.6157C605.26 47.1573 601.179 36.1564 595.274 33.549C591.123 31.7163 582.898 32.1886 578.174 34.5304C575.966 35.6253 573.459 37.1958 572.603 38.0209C571.747 38.8461 570.8 39.5217 570.499 39.5217C569.433 39.5217 568.827 31.0147 569.805 29.782C571.487 27.6603 568 28.456 564.839 30.9147ZM25.6256 42.4501C23.8007 43.2811 22.635 44.66 21.7069 47.0867C20.6881 49.7512 20.0899 50.3982 19.0872 49.9184C16.7349 48.7925 9.30291 48.5841 7.00516 49.5807C5.76557 50.1184 3.52964 51.9082 2.03635 53.5594C-0.525532 56.392 -0.564871 56.5239 1.32904 55.9012C2.43296 55.5391 5.53435 55.0786 8.21987 54.8786C12.4806 54.5618 13.6648 54.8332 17.4903 56.9995C22.537 59.8564 26.8595 60.737 31.4358 59.8379L34.6471 59.2069L32.3984 57.6423C28.1626 54.6946 26.4469 47.7984 29.0529 44.1928C31.3507 41.0123 30.14 40.3964 25.6256 42.4501ZM611.518 41.8324C611.531 42.1795 612.073 43.1971 612.722 44.0936C614.135 46.049 614.259 50.6898 612.968 53.2317C612.454 54.2408 610.964 56.0491 609.655 57.249L607.277 59.4312L610.976 59.9615C615.76 60.648 618.905 59.9556 624.315 57.0255C629.378 54.2837 635.749 53.8274 639.632 55.929C640.934 56.634 642 56.8667 642 56.4466C642 55.1307 635.719 49.6739 633.547 49.1034C631.32 48.5185 624.761 49.0404 622.636 49.9714C621.65 50.4033 621.018 49.7067 620.015 47.0833C619.047 44.5507 617.953 43.3029 615.921 42.4148C612.838 41.0661 611.479 40.8863 611.518 41.8324ZM47.0913 47.8219C47.0913 48.227 47.6332 49.0294 48.2955 49.605C48.9579 50.1806 49.4998 51.1503 49.4998 51.7612C49.4998 53.3191 46.3029 55.487 44.0043 55.487C42.3978 55.487 42.2413 55.6928 43.0594 56.7255C44.7654 58.8758 48.7732 59.0456 54.4349 57.207C59.4864 55.5651 62.3453 55.5836 62.3453 57.2574C62.3453 57.67 62.7355 58.0078 63.2116 58.0078C64.2168 58.0078 63.4276 53.1502 62.1542 51.4957C61.7095 50.9184 60.001 50.4453 58.3576 50.4453C56.3882 50.4453 54.8724 49.8722 53.9154 48.7647C52.4543 47.0749 47.0913 46.3338 47.0913 47.8219ZM587.808 48.7647C586.851 49.8722 585.335 50.4453 583.366 50.4453C581.722 50.4453 580.014 50.9184 579.569 51.4957C578.296 53.1502 577.507 58.0078 578.512 58.0078C578.988 58.0078 579.378 57.6549 579.378 57.2238C579.378 55.5483 582.535 55.5391 587.47 57.2003C592.892 59.0245 596.268 58.8842 599 56.7205C600.494 55.5391 600.467 55.487 598.37 55.487C595.841 55.487 592.224 53.2653 592.224 51.7116C592.224 51.1284 592.766 50.1806 593.428 49.605C595.344 47.9404 594.841 47.0842 591.947 47.0842C590.281 47.0842 588.71 47.722 587.808 48.7647ZM120.953 69.7339V85.6605L123.964 86.3042C129.058 87.394 149.06 87.0537 153.87 85.7967C160.831 83.9766 164.234 81.2029 164.281 77.3115C164.317 74.2983 162.567 72.0632 158.553 70.0003C152.162 66.7156 148.931 66.1047 138.014 66.1199L127.376 66.1333V62.0706V58.0078H144.236H161.095V55.9071V53.8064H141.024H120.953V69.7339ZM172.937 55.355L169.927 56.555V72.1127V87.6705L177.754 87.1193C189.639 86.284 196.73 83.5288 203.29 77.2015L206.788 73.8269L207.023 80.4122L207.259 86.9974H210.332H213.406L213.423 70.8221C213.434 61.926 213.315 54.5862 213.16 54.5122C213.006 54.4383 211.525 54.8458 209.868 55.4172C207.626 56.192 206.854 56.9239 206.846 58.2834C206.813 63.1167 202.843 72.001 198.796 76.2923C195.193 80.1147 187.356 83.8187 181.386 84.5211L176.386 85.1093L176.167 69.6322L175.948 54.1551L172.937 55.355ZM258.251 57.3776C257.284 59.3422 255.37 62.1781 253.998 63.6797L251.502 66.4106H239.617H227.732V60.5286C227.732 57.2936 227.424 54.6467 227.048 54.6467C226.673 54.6467 225.227 55.0618 223.837 55.5693L221.309 56.4919V71.9548V87.4176H224.52H227.732V78.1745V68.9314H239.847C251.416 68.9314 252.031 69.0163 253.506 70.8221C255.402 73.1412 258.132 79.0929 259.379 83.6212C260.135 86.3689 260.713 87.047 262.485 87.263C264.181 87.4705 264.662 87.1747 264.662 85.9269C264.662 83.1683 260.017 74.447 256.722 71.0187L253.567 67.7366L256.725 65.3056C259.833 62.9134 264.662 56.4642 264.662 54.7055C264.662 54.2106 263.615 53.8064 262.335 53.8064C260.407 53.8064 259.706 54.4207 258.251 57.3776ZM292.762 70.5456C292.762 84.9824 292.936 87.4176 293.966 87.4176C294.992 87.4176 295.171 85.2135 295.171 72.6219V57.8255L297.378 58.3859C301.167 59.3464 305.879 62.2184 309.22 65.6039L312.432 68.8575L315.6 65.5165C318.699 62.2479 325.949 58.0078 328.439 58.0078C329.528 58.0078 329.693 59.943 329.693 72.7127V87.4176H332.904H336.116V70.612V53.8064H332.935C327.498 53.8064 320.898 56.9474 316.351 61.6975L312.243 65.9905L309.267 62.4504C306.243 58.8548 300.107 55.2206 295.371 54.2232L292.762 53.6728V70.5456ZM361.405 54.7887C360 55.5483 349.097 71.6775 348.239 74.2655C348.062 74.7974 347.685 75.4226 347.4 75.6537C347.116 75.8847 346.133 77.43 345.217 79.087C344.3 80.7449 342.92 83.1078 342.149 84.3388C340.801 86.4933 340.806 86.5773 342.277 86.5773C343.266 86.5773 344.731 84.9782 346.431 82.0431C348.696 78.1316 349.54 77.3813 352.576 76.5813C357.553 75.2697 362.491 75.4293 367.083 77.0502C372.359 78.9131 374.297 80.3147 376.309 83.7229C377.762 86.1824 378.43 86.5773 381.141 86.5773C382.871 86.5773 384.287 86.4235 384.287 86.2361C384.287 86.0479 382.128 82.1725 379.491 77.6233C376.853 73.074 373.197 66.7047 371.365 63.4696C366.031 54.0509 365.852 53.8039 364.398 53.8636C363.635 53.8946 362.289 54.3106 361.405 54.7887ZM379.469 55.9071V58.0078H388.702H397.935V72.7127V87.4176H401.146H404.358V72.7127V58.0078H413.59H422.823V55.9071V53.8064H401.146H379.469V55.9071ZM429.447 55.1861L426.837 56.3323V63.6024C426.837 70.023 427.067 71.1893 428.803 73.5706C433.169 79.561 446.356 82.7507 457.546 80.5231L463.768 79.2845V82.4087C463.768 85.1371 463.437 85.679 461.159 86.6857C457.172 88.4461 441.855 88.1931 437.09 86.2882C435.021 85.4614 432.139 84.9043 430.685 85.0505L428.042 85.3169L429.994 86.4781C435.406 89.6989 454.426 91.1366 462.81 88.9603C470.459 86.9739 470.191 87.6579 470.191 70.1448C470.191 61.6756 469.92 54.587 469.589 54.3938C469.257 54.1997 467.813 54.5568 466.377 55.1861L463.768 56.3323V66.0358V75.7394L460.758 77.1267C459 77.9359 454.829 78.6518 450.738 78.8467C444.771 79.1307 443.194 78.9097 440.13 77.3577C434.643 74.5773 433.26 71.5607 433.26 62.3697C433.26 58.1767 432.99 54.587 432.658 54.3938C432.326 54.1997 430.882 54.5568 429.447 55.1861ZM486.248 55.0315C476.406 57.1852 477.417 55.1988 477.417 72.3909V87.4176H480.628H483.839V83.5624V79.7072L487.251 80.4113C489.128 80.7987 493.915 81.1071 497.889 81.097C509.697 81.0659 517.25 77.4788 519.967 70.612C521.975 65.5409 516.978 58.6153 509.415 55.9844C503.807 54.0333 492.864 53.5837 486.248 55.0315ZM505.763 57.6625C515.498 61.1345 516.453 72.853 507.364 77.3241C503.032 79.4551 493.083 79.6324 487.595 77.6754L483.839 76.336V67.1963V58.0557L486.449 57.2675C490.753 55.9659 501.631 56.1886 505.763 57.6625ZM368.896 71.3918C370.464 74.2521 370.635 74.9915 369.636 74.5907C366.968 73.5194 358.856 73.09 354.821 73.8076L350.645 74.5495L354.487 68.5894C356.601 65.3115 358.958 61.5622 359.724 60.2572L361.118 57.8851L363.987 62.7781C365.566 65.4695 367.774 69.3457 368.896 71.3918ZM150.674 70.0759C154.733 71.8531 156.44 74.1378 156.134 77.383C155.817 80.7432 152.972 83.138 148.136 84.1161C143.96 84.9606 133.404 85.1085 129.885 84.3716L127.376 83.8464V76.4418V69.0381L129.985 68.6424C134.776 67.9155 147.803 68.818 150.674 70.0759Z" fill="#865A42"/>
</svg>
